<?xml version="1.0" encoding="utf-8" standalone="no"?>
<!DOCTYPE svg PUBLIC "-//W3C//DTD SVG 1.1//EN"
  "http://www.w3.org/Graphics/SVG/1.1/DTD/svg11.dtd">
<svg xmlns:xlink="http://www.w3.org/1999/xlink" width="1080pt" height="720pt" viewBox="0 0 1080 720" xmlns="http://www.w3.org/2000/svg" version="1.1">
 <metadata>
  <rdf:RDF xmlns:dc="http://purl.org/dc/elements/1.1/" xmlns:cc="http://creativecommons.org/ns#" xmlns:rdf="http://www.w3.org/1999/02/22-rdf-syntax-ns#">
   <cc:Work>
    <dc:type rdf:resource="http://purl.org/dc/dcmitype/StillImage"/>
    <dc:date>2024-03-18T17:07:37.768389</dc:date>
    <dc:format>image/svg+xml</dc:format>
    <dc:creator>
     <cc:Agent>
      <dc:title>Matplotlib v3.7.3, https://matplotlib.org/</dc:title>
     </cc:Agent>
    </dc:creator>
   </cc:Work>
  </rdf:RDF>
 </metadata>
 <defs>
  <style type="text/css">*{stroke-linejoin: round; stroke-linecap: butt}</style>
 </defs>
 <g id="figure_1">
  <g id="patch_1">
   <path d="M 0 720 
L 1080 720 
L 1080 0 
L 0 0 
z
" style="fill: #ffffff"/>
  </g>
  <g id="axes_1">
   <g id="patch_2">
    <path d="M 101.93 659.56 
L 1068 659.56 
L 1068 12 
L 101.93 12 
z
" style="fill: #ffffff"/>
   </g>
   <g id="PathCollection_1">
    <defs>
     <path id="ma531c45e85" d="M 0 2.236068 
C 0.593012 2.236068 1.161816 2.000462 1.581139 1.581139 
C 2.000462 1.161816 2.236068 0.593012 2.236068 0 
C 2.236068 -0.593012 2.000462 -1.161816 1.581139 -1.581139 
C 1.161816 -2.000462 0.593012 -2.236068 0 -2.236068 
C -0.593012 -2.236068 -1.161816 -2.000462 -1.581139 -1.581139 
C -2.000462 -1.161816 -2.236068 -0.593012 -2.236068 0 
C -2.236068 0.593012 -2.000462 1.161816 -1.581139 1.581139 
C -1.161816 2.000462 -0.593012 2.236068 0 2.236068 
z
" style="stroke: #1f77b4"/>
    </defs>
    <g clip-path="url(#p045cb78b0f)">
     <use xlink:href="#ma531c45e85" x="680.608617" y="341.669831" style="fill: #1f77b4; stroke: #1f77b4"/>
     <use xlink:href="#ma531c45e85" x="680.792233" y="318.482829" style="fill: #1f77b4; stroke: #1f77b4"/>
     <use xlink:href="#ma531c45e85" x="675.009796" y="295.387016" style="fill: #1f77b4; stroke: #1f77b4"/>
     <use xlink:href="#ma531c45e85" x="680.966607" y="272.3679" style="fill: #1f77b4; stroke: #1f77b4"/>
     <use xlink:href="#ma531c45e85" x="681.485114" y="249.295278" style="fill: #1f77b4; stroke: #1f77b4"/>
     <use xlink:href="#ma531c45e85" x="677.348297" y="225.030986" style="fill: #1f77b4; stroke: #1f77b4"/>
     <use xlink:href="#ma531c45e85" x="682.316081" y="201.939864" style="fill: #1f77b4; stroke: #1f77b4"/>
     <use xlink:href="#ma531c45e85" x="682.276475" y="180.134069" style="fill: #1f77b4; stroke: #1f77b4"/>
     <use xlink:href="#ma531c45e85" x="682.219436" y="110.617421" style="fill: #1f77b4; stroke: #1f77b4"/>
     <use xlink:href="#ma531c45e85" x="682.430112" y="87.536351" style="fill: #1f77b4; stroke: #1f77b4"/>
     <use xlink:href="#ma531c45e85" x="663.72049" y="64.501619" style="fill: #1f77b4; stroke: #1f77b4"/>
     <use xlink:href="#ma531c45e85" x="670.539765" y="41.434545" style="fill: #1f77b4; stroke: #1f77b4"/>
     <use xlink:href="#ma531c45e85" x="676.841731" y="618.273643" style="fill: #1f77b4; stroke: #1f77b4"/>
     <use xlink:href="#ma531c45e85" x="677.244723" y="595.202844" style="fill: #1f77b4; stroke: #1f77b4"/>
     <use xlink:href="#ma531c45e85" x="677.401042" y="572.121477" style="fill: #1f77b4; stroke: #1f77b4"/>
     <use xlink:href="#ma531c45e85" x="678.062808" y="549.58749" style="fill: #1f77b4; stroke: #1f77b4"/>
     <use xlink:href="#ma531c45e85" x="678.118937" y="526.163373" style="fill: #1f77b4; stroke: #1f77b4"/>
     <use xlink:href="#ma531c45e85" x="678.532705" y="503.091999" style="fill: #1f77b4; stroke: #1f77b4"/>
     <use xlink:href="#ma531c45e85" x="678.858113" y="480.029024" style="fill: #1f77b4; stroke: #1f77b4"/>
     <use xlink:href="#ma531c45e85" x="682.393762" y="456.887935" style="fill: #1f77b4; stroke: #1f77b4"/>
     <use xlink:href="#ma531c45e85" x="664.512282" y="433.737243" style="fill: #1f77b4; stroke: #1f77b4"/>
     <use xlink:href="#ma531c45e85" x="664.805762" y="410.630578" style="fill: #1f77b4; stroke: #1f77b4"/>
     <use xlink:href="#ma531c45e85" x="680.127481" y="387.77868" style="fill: #1f77b4; stroke: #1f77b4"/>
     <use xlink:href="#ma531c45e85" x="676.196535" y="364.659236" style="fill: #1f77b4; stroke: #1f77b4"/>
     <use xlink:href="#ma531c45e85" x="826.033772" y="353.300941" style="fill: #1f77b4; stroke: #1f77b4"/>
     <use xlink:href="#ma531c45e85" x="836.843698" y="330.3655" style="fill: #1f77b4; stroke: #1f77b4"/>
     <use xlink:href="#ma531c45e85" x="837.384028" y="307.11697" style="fill: #1f77b4; stroke: #1f77b4"/>
     <use xlink:href="#ma531c45e85" x="843.975451" y="284.194261" style="fill: #1f77b4; stroke: #1f77b4"/>
     <use xlink:href="#ma531c45e85" x="827.037469" y="261.108659" style="fill: #1f77b4; stroke: #1f77b4"/>
     <use xlink:href="#ma531c45e85" x="837.704056" y="237.935636" style="fill: #1f77b4; stroke: #1f77b4"/>
     <use xlink:href="#ma531c45e85" x="842.355756" y="145.676416" style="fill: #1f77b4; stroke: #1f77b4"/>
     <use xlink:href="#ma531c45e85" x="838.92028" y="122.654409" style="fill: #1f77b4; stroke: #1f77b4"/>
     <use xlink:href="#ma531c45e85" x="838.870138" y="99.594151" style="fill: #1f77b4; stroke: #1f77b4"/>
     <use xlink:href="#ma531c45e85" x="860.365361" y="78.441534" style="fill: #1f77b4; stroke: #1f77b4"/>
     <use xlink:href="#ma531c45e85" x="833.240012" y="53.397296" style="fill: #1f77b4; stroke: #1f77b4"/>
     <use xlink:href="#ma531c45e85" x="832.880457" y="630.125455" style="fill: #1f77b4; stroke: #1f77b4"/>
     <use xlink:href="#ma531c45e85" x="833.284232" y="607.139619" style="fill: #1f77b4; stroke: #1f77b4"/>
     <use xlink:href="#ma531c45e85" x="833.578047" y="584.010928" style="fill: #1f77b4; stroke: #1f77b4"/>
     <use xlink:href="#ma531c45e85" x="833.91945" y="560.9286" style="fill: #1f77b4; stroke: #1f77b4"/>
     <use xlink:href="#ma531c45e85" x="834.244395" y="537.79647" style="fill: #1f77b4; stroke: #1f77b4"/>
     <use xlink:href="#ma531c45e85" x="840.799836" y="514.855832" style="fill: #1f77b4; stroke: #1f77b4"/>
     <use xlink:href="#ma531c45e85" x="834.804281" y="491.632451" style="fill: #1f77b4; stroke: #1f77b4"/>
     <use xlink:href="#ma531c45e85" x="841.449103" y="468.597475" style="fill: #1f77b4; stroke: #1f77b4"/>
     <use xlink:href="#ma531c45e85" x="835.544111" y="445.557951" style="fill: #1f77b4; stroke: #1f77b4"/>
     <use xlink:href="#ma531c45e85" x="835.591029" y="423.940442" style="fill: #1f77b4; stroke: #1f77b4"/>
     <use xlink:href="#ma531c45e85" x="840.158359" y="399.524454" style="fill: #1f77b4; stroke: #1f77b4"/>
     <use xlink:href="#ma531c45e85" x="851.167595" y="375.095836" style="fill: #1f77b4; stroke: #1f77b4"/>
     <use xlink:href="#ma531c45e85" x="1024.087727" y="365.012261" style="fill: #1f77b4; stroke: #1f77b4"/>
     <use xlink:href="#ma531c45e85" x="982.190455" y="341.929648" style="fill: #1f77b4; stroke: #1f77b4"/>
     <use xlink:href="#ma531c45e85" x="989.216096" y="318.888419" style="fill: #1f77b4; stroke: #1f77b4"/>
     <use xlink:href="#ma531c45e85" x="993.397547" y="295.877018" style="fill: #1f77b4; stroke: #1f77b4"/>
     <use xlink:href="#ma531c45e85" x="973.227837" y="202.212891" style="fill: #1f77b4; stroke: #1f77b4"/>
     <use xlink:href="#ma531c45e85" x="990.246229" y="179.044181" style="fill: #1f77b4; stroke: #1f77b4"/>
     <use xlink:href="#ma531c45e85" x="994.647359" y="157.249551" style="fill: #1f77b4; stroke: #1f77b4"/>
     <use xlink:href="#ma531c45e85" x="998.327832" y="135.580845" style="fill: #1f77b4; stroke: #1f77b4"/>
     <use xlink:href="#ma531c45e85" x="1005.48128" y="110.891798" style="fill: #1f77b4; stroke: #1f77b4"/>
     <use xlink:href="#ma531c45e85" x="1001.591856" y="87.84631" style="fill: #1f77b4; stroke: #1f77b4"/>
     <use xlink:href="#ma531c45e85" x="988.651932" y="618.881755" style="fill: #1f77b4; stroke: #1f77b4"/>
     <use xlink:href="#ma531c45e85" x="989.678489" y="595.779126" style="fill: #1f77b4; stroke: #1f77b4"/>
     <use xlink:href="#ma531c45e85" x="989.906246" y="572.752996" style="fill: #1f77b4; stroke: #1f77b4"/>
     <use xlink:href="#ma531c45e85" x="994.579273" y="549.45511" style="fill: #1f77b4; stroke: #1f77b4"/>
     <use xlink:href="#ma531c45e85" x="990.621236" y="526.593237" style="fill: #1f77b4; stroke: #1f77b4"/>
     <use xlink:href="#ma531c45e85" x="990.782695" y="503.57055" style="fill: #1f77b4; stroke: #1f77b4"/>
     <use xlink:href="#ma531c45e85" x="991.292741" y="479.096854" style="fill: #1f77b4; stroke: #1f77b4"/>
     <use xlink:href="#ma531c45e85" x="985.032888" y="457.353763" style="fill: #1f77b4; stroke: #1f77b4"/>
     <use xlink:href="#ma531c45e85" x="991.658346" y="434.271719" style="fill: #1f77b4; stroke: #1f77b4"/>
     <use xlink:href="#ma531c45e85" x="992.407882" y="410.975907" style="fill: #1f77b4; stroke: #1f77b4"/>
     <use xlink:href="#ma531c45e85" x="998.907194" y="389.444766" style="fill: #1f77b4; stroke: #1f77b4"/>
     <use xlink:href="#ma531c45e85" x="460.457966" y="352.255489" style="fill: #1f77b4; stroke: #1f77b4"/>
     <use xlink:href="#ma531c45e85" x="467.184396" y="329.148357" style="fill: #1f77b4; stroke: #1f77b4"/>
     <use xlink:href="#ma531c45e85" x="460.573513" y="302.748628" style="fill: #1f77b4; stroke: #1f77b4"/>
     <use xlink:href="#ma531c45e85" x="465.39949" y="283.054818" style="fill: #1f77b4; stroke: #1f77b4"/>
     <use xlink:href="#ma531c45e85" x="461.451973" y="259.899771" style="fill: #1f77b4; stroke: #1f77b4"/>
     <use xlink:href="#ma531c45e85" x="461.07521" y="237.060432" style="fill: #1f77b4; stroke: #1f77b4"/>
     <use xlink:href="#ma531c45e85" x="467.911311" y="213.790392" style="fill: #1f77b4; stroke: #1f77b4"/>
     <use xlink:href="#ma531c45e85" x="462.08194" y="190.72188" style="fill: #1f77b4; stroke: #1f77b4"/>
     <use xlink:href="#ma531c45e85" x="462.391464" y="167.759671" style="fill: #1f77b4; stroke: #1f77b4"/>
     <use xlink:href="#ma531c45e85" x="468.33536" y="144.256908" style="fill: #1f77b4; stroke: #1f77b4"/>
     <use xlink:href="#ma531c45e85" x="462.113405" y="121.329868" style="fill: #1f77b4; stroke: #1f77b4"/>
     <use xlink:href="#ma531c45e85" x="444.918181" y="605.755015" style="fill: #1f77b4; stroke: #1f77b4"/>
     <use xlink:href="#ma531c45e85" x="457.21741" y="582.798858" style="fill: #1f77b4; stroke: #1f77b4"/>
     <use xlink:href="#ma531c45e85" x="471.755957" y="561.89172" style="fill: #1f77b4; stroke: #1f77b4"/>
     <use xlink:href="#ma531c45e85" x="457.774326" y="536.755911" style="fill: #1f77b4; stroke: #1f77b4"/>
     <use xlink:href="#ma531c45e85" x="457.922327" y="513.578317" style="fill: #1f77b4; stroke: #1f77b4"/>
     <use xlink:href="#ma531c45e85" x="458.981403" y="490.549439" style="fill: #1f77b4; stroke: #1f77b4"/>
     <use xlink:href="#ma531c45e85" x="458.927924" y="467.461352" style="fill: #1f77b4; stroke: #1f77b4"/>
     <use xlink:href="#ma531c45e85" x="467.814107" y="444.533688" style="fill: #1f77b4; stroke: #1f77b4"/>
     <use xlink:href="#ma531c45e85" x="459.919377" y="421.411609" style="fill: #1f77b4; stroke: #1f77b4"/>
     <use xlink:href="#ma531c45e85" x="463.357646" y="398.41978" style="fill: #1f77b4; stroke: #1f77b4"/>
     <use xlink:href="#ma531c45e85" x="460.435154" y="375.274119" style="fill: #1f77b4; stroke: #1f77b4"/>
     <use xlink:href="#ma531c45e85" x="308.337128" y="292.995772" style="fill: #1f77b4; stroke: #1f77b4"/>
     <use xlink:href="#ma531c45e85" x="311.189954" y="270.552661" style="fill: #1f77b4; stroke: #1f77b4"/>
     <use xlink:href="#ma531c45e85" x="311.172585" y="248.81566" style="fill: #1f77b4; stroke: #1f77b4"/>
     <use xlink:href="#ma531c45e85" x="309.358641" y="224.346907" style="fill: #1f77b4; stroke: #1f77b4"/>
     <use xlink:href="#ma531c45e85" x="309.323616" y="201.311367" style="fill: #1f77b4; stroke: #1f77b4"/>
     <use xlink:href="#ma531c45e85" x="305.885922" y="178.255639" style="fill: #1f77b4; stroke: #1f77b4"/>
     <use xlink:href="#ma531c45e85" x="308.161589" y="152.672307" style="fill: #1f77b4; stroke: #1f77b4"/>
     <use xlink:href="#ma531c45e85" x="315.803962" y="131.848365" style="fill: #1f77b4; stroke: #1f77b4"/>
     <use xlink:href="#ma531c45e85" x="305.731439" y="108.645855" style="fill: #1f77b4; stroke: #1f77b4"/>
     <use xlink:href="#ma531c45e85" x="306.039893" y="85.652671" style="fill: #1f77b4; stroke: #1f77b4"/>
     <use xlink:href="#ma531c45e85" x="306.343814" y="62.598498" style="fill: #1f77b4; stroke: #1f77b4"/>
     <use xlink:href="#ma531c45e85" x="297.910957" y="547.061975" style="fill: #1f77b4; stroke: #1f77b4"/>
     <use xlink:href="#ma531c45e85" x="300.0259" y="522.786459" style="fill: #1f77b4; stroke: #1f77b4"/>
     <use xlink:href="#ma531c45e85" x="310.186416" y="501.799438" style="fill: #1f77b4; stroke: #1f77b4"/>
     <use xlink:href="#ma531c45e85" x="301.927629" y="477.891897" style="fill: #1f77b4; stroke: #1f77b4"/>
     <use xlink:href="#ma531c45e85" x="307.6987" y="454.843823" style="fill: #1f77b4; stroke: #1f77b4"/>
     <use xlink:href="#ma531c45e85" x="293.959034" y="431.668066" style="fill: #1f77b4; stroke: #1f77b4"/>
     <use xlink:href="#ma531c45e85" x="309.136024" y="408.786986" style="fill: #1f77b4; stroke: #1f77b4"/>
     <use xlink:href="#ma531c45e85" x="309.59778" y="385.65872" style="fill: #1f77b4; stroke: #1f77b4"/>
     <use xlink:href="#ma531c45e85" x="307.766691" y="362.561383" style="fill: #1f77b4; stroke: #1f77b4"/>
     <use xlink:href="#ma531c45e85" x="303.67593" y="339.572437" style="fill: #1f77b4; stroke: #1f77b4"/>
     <use xlink:href="#ma531c45e85" x="303.685109" y="316.617953" style="fill: #1f77b4; stroke: #1f77b4"/>
     <use xlink:href="#ma531c45e85" x="147.380776" y="280.957652" style="fill: #1f77b4; stroke: #1f77b4"/>
     <use xlink:href="#ma531c45e85" x="152.454912" y="257.987045" style="fill: #1f77b4; stroke: #1f77b4"/>
     <use xlink:href="#ma531c45e85" x="150.197667" y="234.940036" style="fill: #1f77b4; stroke: #1f77b4"/>
     <use xlink:href="#ma531c45e85" x="148.547624" y="211.82506" style="fill: #1f77b4; stroke: #1f77b4"/>
     <use xlink:href="#ma531c45e85" x="148.61563" y="188.824727" style="fill: #1f77b4; stroke: #1f77b4"/>
     <use xlink:href="#ma531c45e85" x="148.750014" y="165.755287" style="fill: #1f77b4; stroke: #1f77b4"/>
     <use xlink:href="#ma531c45e85" x="148.88344" y="142.290455" style="fill: #1f77b4; stroke: #1f77b4"/>
     <use xlink:href="#ma531c45e85" x="150.972346" y="119.349389" style="fill: #1f77b4; stroke: #1f77b4"/>
     <use xlink:href="#ma531c45e85" x="151.275388" y="96.15775" style="fill: #1f77b4; stroke: #1f77b4"/>
     <use xlink:href="#ma531c45e85" x="148.898382" y="73.034617" style="fill: #1f77b4; stroke: #1f77b4"/>
     <use xlink:href="#ma531c45e85" x="155.63372" y="50.013296" style="fill: #1f77b4; stroke: #1f77b4"/>
     <use xlink:href="#ma531c45e85" x="145.842273" y="534.180918" style="fill: #1f77b4; stroke: #1f77b4"/>
     <use xlink:href="#ma531c45e85" x="148.826641" y="512.333517" style="fill: #1f77b4; stroke: #1f77b4"/>
     <use xlink:href="#ma531c45e85" x="147.20479" y="489.338726" style="fill: #1f77b4; stroke: #1f77b4"/>
     <use xlink:href="#ma531c45e85" x="150.829294" y="466.345934" style="fill: #1f77b4; stroke: #1f77b4"/>
     <use xlink:href="#ma531c45e85" x="156.773557" y="442.554779" style="fill: #1f77b4; stroke: #1f77b4"/>
     <use xlink:href="#ma531c45e85" x="148.959748" y="420.844019" style="fill: #1f77b4; stroke: #1f77b4"/>
     <use xlink:href="#ma531c45e85" x="147.861847" y="396.290747" style="fill: #1f77b4; stroke: #1f77b4"/>
     <use xlink:href="#ma531c45e85" x="149.569169" y="373.461243" style="fill: #1f77b4; stroke: #1f77b4"/>
     <use xlink:href="#ma531c45e85" x="155.848019" y="350.864965" style="fill: #1f77b4; stroke: #1f77b4"/>
     <use xlink:href="#ma531c45e85" x="158.362889" y="327.483308" style="fill: #1f77b4; stroke: #1f77b4"/>
     <use xlink:href="#ma531c45e85" x="147.652337" y="304.067" style="fill: #1f77b4; stroke: #1f77b4"/>
    </g>
   </g>
   <g id="matplotlib.axis_1">
    <g id="xtick_1">
     <g id="line2d_1">
      <defs>
       <path id="mb9ebbcae91" d="M 0 0 
L 0 3.5 
" style="stroke: #000000; stroke-width: 0.8"/>
      </defs>
      <g>
       <use xlink:href="#mb9ebbcae91" x="145.842273" y="659.56" style="stroke: #000000; stroke-width: 0.8"/>
      </g>
     </g>
     <g id="text_1">
      <!-- 0 -->
      <g transform="translate(139.842273 683.06) scale(0.24 -0.24)">
       <defs>
        <path id="SimHei-30" d="M 225 2537 
Q 250 3200 412 3587 
Q 575 3975 875 4225 
Q 1175 4475 1612 4475 
Q 2050 4475 2375 4112 
Q 2700 3750 2800 3200 
Q 2900 2650 2862 1937 
Q 2825 1225 2612 775 
Q 2400 325 1975 150 
Q 1550 -25 1125 187 
Q 700 400 525 750 
Q 350 1100 275 1487 
Q 200 1875 225 2537 
z
M 750 2687 
Q 675 2000 800 1462 
Q 925 925 1212 700 
Q 1500 475 1800 612 
Q 2100 750 2237 1162 
Q 2375 1575 2375 2062 
Q 2375 2550 2337 2950 
Q 2300 3350 2112 3675 
Q 1925 4000 1612 4012 
Q 1300 4025 1062 3700 
Q 825 3375 750 2687 
z
" transform="scale(0.015625)"/>
       </defs>
       <use xlink:href="#SimHei-30"/>
      </g>
     </g>
    </g>
    <g id="xtick_2">
     <g id="line2d_2">
      <g>
       <use xlink:href="#mb9ebbcae91" x="305.481094" y="659.56" style="stroke: #000000; stroke-width: 0.8"/>
      </g>
     </g>
     <g id="text_2">
      <!-- 1000 -->
      <g transform="translate(281.481094 683.06) scale(0.24 -0.24)">
       <defs>
        <path id="SimHei-31" d="M 1400 3600 
Q 1075 3275 575 2975 
L 575 3450 
Q 1200 3875 1600 4450 
L 1900 4450 
L 1900 150 
L 1400 150 
L 1400 3600 
z
" transform="scale(0.015625)"/>
       </defs>
       <use xlink:href="#SimHei-31"/>
       <use xlink:href="#SimHei-30" x="50"/>
       <use xlink:href="#SimHei-30" x="100"/>
       <use xlink:href="#SimHei-30" x="150"/>
      </g>
     </g>
    </g>
    <g id="xtick_3">
     <g id="line2d_3">
      <g>
       <use xlink:href="#mb9ebbcae91" x="465.119915" y="659.56" style="stroke: #000000; stroke-width: 0.8"/>
      </g>
     </g>
     <g id="text_3">
      <!-- 2000 -->
      <g transform="translate(441.119915 683.06) scale(0.24 -0.24)">
       <defs>
        <path id="SimHei-32" d="M 300 250 
Q 325 625 650 925 
Q 975 1225 1475 1862 
Q 1975 2500 2125 2850 
Q 2275 3200 2237 3450 
Q 2200 3700 2000 3862 
Q 1800 4025 1537 4000 
Q 1275 3975 1037 3800 
Q 800 3625 675 3275 
L 200 3350 
Q 400 3925 712 4187 
Q 1025 4450 1450 4475 
Q 1700 4500 1900 4462 
Q 2100 4425 2312 4287 
Q 2525 4150 2662 3875 
Q 2800 3600 2762 3212 
Q 2725 2825 2375 2287 
Q 2025 1750 1025 600 
L 2825 600 
L 2825 150 
L 300 150 
L 300 250 
z
" transform="scale(0.015625)"/>
       </defs>
       <use xlink:href="#SimHei-32"/>
       <use xlink:href="#SimHei-30" x="50"/>
       <use xlink:href="#SimHei-30" x="100"/>
       <use xlink:href="#SimHei-30" x="150"/>
      </g>
     </g>
    </g>
    <g id="xtick_4">
     <g id="line2d_4">
      <g>
       <use xlink:href="#mb9ebbcae91" x="624.758736" y="659.56" style="stroke: #000000; stroke-width: 0.8"/>
      </g>
     </g>
     <g id="text_4">
      <!-- 3000 -->
      <g transform="translate(600.758736 683.06) scale(0.24 -0.24)">
       <defs>
        <path id="SimHei-33" d="M 250 1225 
L 700 1300 
Q 800 975 1025 762 
Q 1250 550 1587 562 
Q 1925 575 2125 837 
Q 2325 1100 2300 1437 
Q 2275 1775 2037 1962 
Q 1800 2150 1275 2225 
L 1275 2550 
Q 1800 2600 2037 2825 
Q 2275 3050 2250 3412 
Q 2225 3775 1925 3937 
Q 1625 4100 1287 3975 
Q 950 3850 750 3275 
L 300 3350 
Q 450 3800 712 4100 
Q 975 4400 1425 4450 
Q 1875 4500 2212 4337 
Q 2550 4175 2687 3837 
Q 2825 3500 2725 3100 
Q 2625 2700 2150 2400 
Q 2500 2250 2687 1950 
Q 2875 1650 2812 1162 
Q 2750 675 2375 375 
Q 2000 75 1525 87 
Q 1050 100 700 387 
Q 350 675 250 1225 
z
" transform="scale(0.015625)"/>
       </defs>
       <use xlink:href="#SimHei-33"/>
       <use xlink:href="#SimHei-30" x="50"/>
       <use xlink:href="#SimHei-30" x="100"/>
       <use xlink:href="#SimHei-30" x="150"/>
      </g>
     </g>
    </g>
    <g id="xtick_5">
     <g id="line2d_5">
      <g>
       <use xlink:href="#mb9ebbcae91" x="784.397557" y="659.56" style="stroke: #000000; stroke-width: 0.8"/>
      </g>
     </g>
     <g id="text_5">
      <!-- 4000 -->
      <g transform="translate(760.397557 683.06) scale(0.24 -0.24)">
       <defs>
        <path id="SimHei-34" d="M 2000 1100 
L 75 1100 
L 75 1525 
L 2100 4450 
L 2475 4450 
L 2475 1525 
L 3075 1525 
L 3075 1100 
L 2475 1100 
L 2475 150 
L 2000 150 
L 2000 1100 
z
M 2000 1525 
L 2000 3500 
L 600 1525 
L 2000 1525 
z
" transform="scale(0.015625)"/>
       </defs>
       <use xlink:href="#SimHei-34"/>
       <use xlink:href="#SimHei-30" x="50"/>
       <use xlink:href="#SimHei-30" x="100"/>
       <use xlink:href="#SimHei-30" x="150"/>
      </g>
     </g>
    </g>
    <g id="xtick_6">
     <g id="line2d_6">
      <g>
       <use xlink:href="#mb9ebbcae91" x="944.036378" y="659.56" style="stroke: #000000; stroke-width: 0.8"/>
      </g>
     </g>
     <g id="text_6">
      <!-- 5000 -->
      <g transform="translate(920.036378 683.06) scale(0.24 -0.24)">
       <defs>
        <path id="SimHei-35" d="M 550 1325 
Q 725 650 1150 575 
Q 1575 500 1837 662 
Q 2100 825 2212 1087 
Q 2325 1350 2312 1675 
Q 2300 2000 2137 2225 
Q 1975 2450 1725 2525 
Q 1475 2600 1162 2525 
Q 850 2450 650 2175 
L 225 2225 
Q 275 2375 700 4375 
L 2675 4375 
L 2675 3925 
L 1075 3925 
Q 950 3250 825 2850 
Q 1200 3025 1525 3012 
Q 1850 3000 2150 2862 
Q 2450 2725 2587 2487 
Q 2725 2250 2787 2012 
Q 2850 1775 2837 1500 
Q 2825 1225 2725 937 
Q 2625 650 2425 462 
Q 2225 275 1937 162 
Q 1650 50 1275 75 
Q 900 100 562 350 
Q 225 600 100 1200 
L 550 1325 
z
" transform="scale(0.015625)"/>
       </defs>
       <use xlink:href="#SimHei-35"/>
       <use xlink:href="#SimHei-30" x="50"/>
       <use xlink:href="#SimHei-30" x="100"/>
       <use xlink:href="#SimHei-30" x="150"/>
      </g>
     </g>
    </g>
    <g id="text_7">
     <!-- x -->
     <g transform="translate(578.965 706.56) scale(0.24 -0.24)">
      <defs>
       <path id="SimHei-78" d="M 2875 125 
L 2275 125 
L 1550 1200 
L 825 125 
L 225 125 
L 1250 1550 
L 300 2925 
L 900 2925 
L 1550 1875 
L 2200 2925 
L 2800 2925 
L 1850 1550 
L 2875 125 
z
" transform="scale(0.015625)"/>
      </defs>
      <use xlink:href="#SimHei-78"/>
     </g>
    </g>
   </g>
   <g id="matplotlib.axis_2">
    <g id="ytick_1">
     <g id="line2d_7">
      <defs>
       <path id="m250a9d7fe6" d="M 0 0 
L -3.5 0 
" style="stroke: #000000; stroke-width: 0.8"/>
      </defs>
      <g>
       <use xlink:href="#m250a9d7fe6" x="101.93" y="630.125455" style="stroke: #000000; stroke-width: 0.8"/>
      </g>
     </g>
     <g id="text_8">
      <!-- 0 -->
      <g transform="translate(82.93 638.375455) scale(0.24 -0.24)">
       <use xlink:href="#SimHei-30"/>
      </g>
     </g>
    </g>
    <g id="ytick_2">
     <g id="line2d_8">
      <g>
       <use xlink:href="#m250a9d7fe6" x="101.93" y="532.989789" style="stroke: #000000; stroke-width: 0.8"/>
      </g>
     </g>
     <g id="text_9">
      <!-- 2000 -->
      <g transform="translate(46.93 541.239789) scale(0.24 -0.24)">
       <use xlink:href="#SimHei-32"/>
       <use xlink:href="#SimHei-30" x="50"/>
       <use xlink:href="#SimHei-30" x="100"/>
       <use xlink:href="#SimHei-30" x="150"/>
      </g>
     </g>
    </g>
    <g id="ytick_3">
     <g id="line2d_9">
      <g>
       <use xlink:href="#m250a9d7fe6" x="101.93" y="435.854123" style="stroke: #000000; stroke-width: 0.8"/>
      </g>
     </g>
     <g id="text_10">
      <!-- 4000 -->
      <g transform="translate(46.93 444.104123) scale(0.24 -0.24)">
       <use xlink:href="#SimHei-34"/>
       <use xlink:href="#SimHei-30" x="50"/>
       <use xlink:href="#SimHei-30" x="100"/>
       <use xlink:href="#SimHei-30" x="150"/>
      </g>
     </g>
    </g>
    <g id="ytick_4">
     <g id="line2d_10">
      <g>
       <use xlink:href="#m250a9d7fe6" x="101.93" y="338.718457" style="stroke: #000000; stroke-width: 0.8"/>
      </g>
     </g>
     <g id="text_11">
      <!-- 6000 -->
      <g transform="translate(46.93 346.968457) scale(0.24 -0.24)">
       <defs>
        <path id="SimHei-36" d="M 250 1612 
Q 275 1975 387 2225 
Q 500 2475 725 2850 
L 1750 4450 
L 2325 4450 
L 1275 2800 
Q 1950 2975 2350 2750 
Q 2750 2525 2887 2237 
Q 3025 1950 3037 1612 
Q 3050 1275 2937 950 
Q 2825 625 2537 362 
Q 2250 100 1737 75 
Q 1225 50 862 262 
Q 500 475 362 862 
Q 225 1250 250 1612 
z
M 1025 787 
Q 1250 550 1625 525 
Q 2000 500 2250 775 
Q 2500 1050 2500 1575 
Q 2500 2100 2187 2300 
Q 1875 2500 1487 2450 
Q 1100 2400 925 2075 
Q 750 1750 775 1387 
Q 800 1025 1025 787 
z
" transform="scale(0.015625)"/>
       </defs>
       <use xlink:href="#SimHei-36"/>
       <use xlink:href="#SimHei-30" x="50"/>
       <use xlink:href="#SimHei-30" x="100"/>
       <use xlink:href="#SimHei-30" x="150"/>
      </g>
     </g>
    </g>
    <g id="ytick_5">
     <g id="line2d_11">
      <g>
       <use xlink:href="#m250a9d7fe6" x="101.93" y="241.582792" style="stroke: #000000; stroke-width: 0.8"/>
      </g>
     </g>
     <g id="text_12">
      <!-- 8000 -->
      <g transform="translate(46.93 249.832792) scale(0.24 -0.24)">
       <defs>
        <path id="SimHei-38" d="M 175 1375 
Q 175 1675 325 1962 
Q 475 2250 825 2425 
Q 525 2600 425 2812 
Q 325 3025 312 3300 
Q 300 3575 387 3775 
Q 475 3975 650 4150 
Q 825 4325 1037 4387 
Q 1250 4450 1500 4450 
Q 1750 4450 1950 4400 
Q 2150 4350 2375 4187 
Q 2600 4025 2700 3725 
Q 2800 3425 2687 3025 
Q 2575 2625 2100 2400 
Q 2525 2275 2700 2012 
Q 2875 1750 2875 1375 
Q 2875 1000 2762 775 
Q 2650 550 2512 400 
Q 2375 250 2137 162 
Q 1900 75 1537 75 
Q 1175 75 912 162 
Q 650 250 475 425 
Q 300 600 237 837 
Q 175 1075 175 1375 
z
M 687 1400 
Q 675 1100 787 875 
Q 900 650 1200 587 
Q 1500 525 1825 600 
Q 2150 675 2275 950 
Q 2400 1225 2362 1500 
Q 2325 1775 2050 1962 
Q 1775 2150 1450 2125 
Q 1125 2100 912 1900 
Q 700 1700 687 1400 
z
M 775 3350 
Q 775 3100 950 2875 
Q 1125 2650 1500 2650 
Q 1875 2650 2062 2875 
Q 2250 3100 2237 3412 
Q 2225 3725 2012 3875 
Q 1800 4025 1437 4000 
Q 1075 3975 925 3787 
Q 775 3600 775 3350 
z
" transform="scale(0.015625)"/>
       </defs>
       <use xlink:href="#SimHei-38"/>
       <use xlink:href="#SimHei-30" x="50"/>
       <use xlink:href="#SimHei-30" x="100"/>
       <use xlink:href="#SimHei-30" x="150"/>
      </g>
     </g>
    </g>
    <g id="ytick_6">
     <g id="line2d_12">
      <g>
       <use xlink:href="#m250a9d7fe6" x="101.93" y="144.447126" style="stroke: #000000; stroke-width: 0.8"/>
      </g>
     </g>
     <g id="text_13">
      <!-- 10000 -->
      <g transform="translate(34.93 152.697126) scale(0.24 -0.24)">
       <use xlink:href="#SimHei-31"/>
       <use xlink:href="#SimHei-30" x="50"/>
       <use xlink:href="#SimHei-30" x="100"/>
       <use xlink:href="#SimHei-30" x="150"/>
       <use xlink:href="#SimHei-30" x="200"/>
      </g>
     </g>
    </g>
    <g id="ytick_7">
     <g id="line2d_13">
      <g>
       <use xlink:href="#m250a9d7fe6" x="101.93" y="47.31146" style="stroke: #000000; stroke-width: 0.8"/>
      </g>
     </g>
     <g id="text_14">
      <!-- 12000 -->
      <g transform="translate(34.93 55.56146) scale(0.24 -0.24)">
       <use xlink:href="#SimHei-31"/>
       <use xlink:href="#SimHei-32" x="50"/>
       <use xlink:href="#SimHei-30" x="100"/>
       <use xlink:href="#SimHei-30" x="150"/>
       <use xlink:href="#SimHei-30" x="200"/>
      </g>
     </g>
    </g>
    <g id="text_15">
     <!-- y -->
     <g transform="translate(27.93 341.78) rotate(-90) scale(0.24 -0.24)">
      <defs>
       <path id="SimHei-79" d="M 2900 2925 
L 1750 -100 
Q 1650 -450 1450 -625 
Q 1250 -800 950 -800 
Q 825 -800 712 -787 
Q 600 -775 500 -725 
L 500 -225 
Q 600 -275 700 -300 
Q 800 -325 875 -325 
Q 1075 -325 1150 -262 
Q 1225 -200 1300 25 
L 200 2925 
L 750 2925 
L 1550 725 
L 1575 725 
L 2350 2925 
L 2900 2925 
z
" transform="scale(0.015625)"/>
      </defs>
      <use xlink:href="#SimHei-79"/>
     </g>
    </g>
   </g>
   <g id="patch_3">
    <path d="M 101.93 659.56 
L 101.93 12 
" style="fill: none; stroke: #000000; stroke-width: 0.8; stroke-linejoin: miter; stroke-linecap: square"/>
   </g>
   <g id="patch_4">
    <path d="M 1068 659.56 
L 1068 12 
" style="fill: none; stroke: #000000; stroke-width: 0.8; stroke-linejoin: miter; stroke-linecap: square"/>
   </g>
   <g id="patch_5">
    <path d="M 101.93 659.56 
L 1068 659.56 
" style="fill: none; stroke: #000000; stroke-width: 0.8; stroke-linejoin: miter; stroke-linecap: square"/>
   </g>
   <g id="patch_6">
    <path d="M 101.93 12 
L 1068 12 
" style="fill: none; stroke: #000000; stroke-width: 0.8; stroke-linejoin: miter; stroke-linecap: square"/>
   </g>
   <g id="legend_1">
    <g id="patch_7">
     <path d="M 878.4 65.23125 
L 1051.2 65.23125 
Q 1056 65.23125 1056 60.43125 
L 1056 28.8 
Q 1056 24 1051.2 24 
L 878.4 24 
Q 873.6 24 873.6 28.8 
L 873.6 60.43125 
Q 873.6 65.23125 878.4 65.23125 
z
" style="fill: #ffffff; opacity: 0.8; stroke: #cccccc; stroke-linejoin: miter"/>
    </g>
    <g id="PathCollection_2">
     <g>
      <use xlink:href="#ma531c45e85" x="907.2" y="46.33125" style="fill: #1f77b4; stroke: #1f77b4"/>
     </g>
    </g>
    <g id="text_16">
     <!-- 风机位置 -->
     <g transform="translate(950.4 52.63125) scale(0.24 -0.24)">
      <defs>
       <path id="SimHei-98ce" d="M 5100 4950 
Q 5050 3950 5062 3137 
Q 5075 2325 5087 1825 
Q 5100 1325 5262 712 
Q 5425 100 5525 150 
Q 5625 200 5700 775 
Q 5925 550 6200 450 
Q 5950 -475 5687 -562 
Q 5425 -650 5175 -337 
Q 4925 -25 4787 575 
Q 4650 1175 4625 1862 
Q 4600 2550 4600 4500 
L 1500 4500 
Q 1500 2475 1437 1825 
Q 1375 1175 1187 525 
Q 1000 -125 625 -675 
Q 400 -425 275 -275 
Q 600 150 775 737 
Q 950 1325 1000 2062 
Q 1050 2800 1050 3675 
Q 1050 4550 1025 4950 
L 5100 4950 
z
M 4225 3625 
Q 4075 3425 3875 2950 
Q 3675 2475 3475 2100 
Q 4025 1200 4350 525 
Q 4100 400 3925 275 
Q 3750 700 3225 1625 
Q 2950 1250 2650 925 
Q 2350 600 1950 250 
Q 1750 525 1600 625 
Q 2000 875 2375 1287 
Q 2750 1700 2950 2025 
Q 2450 2825 1850 3450 
Q 2075 3600 2200 3750 
Q 2700 3175 3200 2475 
Q 3475 3000 3725 3925 
L 4225 3625 
z
" transform="scale(0.015625)"/>
       <path id="SimHei-673a" d="M 5100 4775 
Q 5075 4075 5075 3575 
L 5075 325 
Q 5075 0 5225 -25 
Q 5375 -50 5475 -37 
Q 5575 -25 5612 137 
Q 5650 300 5650 625 
Q 5875 500 6175 425 
Q 6075 -100 5975 -275 
Q 5875 -450 5650 -450 
L 5125 -450 
Q 4825 -450 4687 -312 
Q 4550 -175 4575 250 
L 4575 4350 
L 3625 4350 
Q 3625 2925 3587 2137 
Q 3550 1350 3362 712 
Q 3175 75 2625 -575 
Q 2500 -425 2175 -175 
Q 2525 100 2737 500 
Q 2950 900 3025 1325 
Q 3100 1750 3125 2225 
Q 3150 2700 3150 3425 
Q 3150 4175 3125 4775 
L 5100 4775 
z
M 2150 2725 
Q 2550 2175 2750 1875 
Q 2575 1725 2325 1550 
Q 2175 1875 1800 2425 
L 1800 600 
Q 1800 100 1825 -525 
L 1275 -525 
Q 1300 100 1300 600 
L 1300 2200 
Q 1175 1825 1025 1487 
Q 875 1150 600 725 
Q 375 975 200 1125 
Q 400 1350 725 2000 
Q 1050 2650 1225 3450 
L 1075 3450 
Q 725 3450 375 3400 
L 375 3875 
Q 725 3850 1050 3850 
L 1300 3850 
L 1300 4350 
Q 1300 4750 1275 5100 
L 1850 5100 
Q 1800 4850 1800 4350 
L 1800 3850 
L 2075 3850 
Q 2350 3850 2700 3875 
L 2700 3425 
Q 2150 3450 1800 3450 
L 1800 2450 
Q 1950 2575 2150 2725 
z
" transform="scale(0.015625)"/>
       <path id="SimHei-4f4d" d="M 2125 4925 
Q 1950 4750 1625 3750 
L 1625 575 
Q 1625 -225 1650 -650 
L 1100 -650 
Q 1150 -200 1150 550 
L 1150 2950 
Q 775 2275 550 1950 
Q 375 2275 200 2425 
Q 525 2775 912 3575 
Q 1300 4375 1500 5200 
Q 1825 5000 2125 4925 
z
M 5375 3025 
Q 5275 2875 5100 2250 
Q 4925 1625 4600 300 
L 5450 300 
Q 5925 300 6100 325 
L 6100 -175 
Q 5875 -150 5450 -150 
L 2900 -150 
Q 2275 -150 2050 -175 
L 2050 325 
Q 2275 300 2850 300 
L 4075 300 
Q 4400 1400 4700 3175 
Q 5100 3075 5375 3025 
z
M 5250 4025 
Q 5700 4025 5925 4050 
L 5925 3575 
Q 5700 3600 5225 3600 
L 3000 3600 
Q 2650 3600 2275 3575 
L 2275 4050 
Q 2675 4025 3000 4025 
L 5250 4025 
z
M 3050 3050 
Q 3500 1775 3750 725 
Q 3450 625 3250 550 
Q 3125 1125 2962 1675 
Q 2800 2225 2550 2875 
Q 2800 2925 3050 3050 
z
M 3875 5200 
Q 4175 4675 4400 4300 
Q 4200 4250 3875 4075 
Q 3700 4525 3400 4950 
Q 3650 5050 3875 5200 
z
" transform="scale(0.015625)"/>
       <path id="SimHei-7f6e" d="M 3600 3650 
Q 3525 3475 3475 3325 
L 4750 3325 
Q 5100 3325 5675 3350 
L 5675 2925 
Q 5125 2950 4750 2950 
L 3400 2950 
L 3350 2600 
L 5000 2600 
Q 4975 1975 4975 1550 
L 4975 -50 
Q 5575 -50 6025 -25 
L 6025 -400 
Q 5475 -375 5000 -375 
L 1400 -375 
Q 900 -375 400 -400 
L 400 -25 
Q 925 -50 1450 -50 
L 1450 1550 
Q 1450 1975 1425 2600 
L 2875 2600 
L 2925 2950 
L 1600 2950 
Q 1150 2950 650 2925 
L 650 3350 
Q 1150 3325 1600 3325 
L 2975 3325 
Q 3000 3525 3000 3700 
Q 3250 3650 3600 3650 
z
M 5575 4950 
Q 5550 4600 5550 4300 
Q 5550 4000 5575 3775 
L 900 3775 
Q 925 4075 925 4325 
Q 925 4600 900 4950 
L 5575 4950 
z
M 4575 1900 
L 4575 2250 
L 1850 2250 
L 1850 1900 
L 4575 1900 
z
M 4575 1250 
L 4575 1575 
L 1850 1575 
L 1850 1250 
L 4575 1250 
z
M 4575 -50 
L 4575 275 
L 1850 275 
L 1850 -50 
L 4575 -50 
z
M 4575 625 
L 4575 875 
L 1850 875 
L 1850 625 
L 4575 625 
z
M 3700 4100 
L 3700 4625 
L 2700 4625 
L 2700 4100 
L 3700 4100 
z
M 5075 4100 
L 5075 4625 
L 4100 4625 
L 4100 4100 
L 5075 4100 
z
M 2350 4100 
L 2350 4625 
L 1400 4625 
L 1400 4100 
L 2350 4100 
z
" transform="scale(0.015625)"/>
      </defs>
      <use xlink:href="#SimHei-98ce"/>
      <use xlink:href="#SimHei-673a" x="100"/>
      <use xlink:href="#SimHei-4f4d" x="200"/>
      <use xlink:href="#SimHei-7f6e" x="300"/>
     </g>
    </g>
   </g>
  </g>
 </g>
 <defs>
  <clipPath id="p045cb78b0f">
   <rect x="101.93" y="12" width="966.07" height="647.56"/>
  </clipPath>
 </defs>
</svg>
